<svg width="32" height="32" viewBox="0 0 32 32" fill="none" xmlns="http://www.w3.org/2000/svg">
  <path d="M16 2.66667C8.64001 2.66667 2.66667 8.64001 2.66667 16C2.66667 23.36 8.64001 29.3333 16 29.3333C23.36 29.3333 29.3333 23.36 29.3333 16C29.3333 8.64001 23.36 2.66667 16 2.66667ZM16 26.6667C10.12 26.6667 5.33334 21.88 5.33334 16C5.33334 10.12 10.12 5.33334 16 5.33334C21.88 5.33334 26.6667 10.12 26.6667 16C26.6667 21.88 21.88 26.6667 16 26.6667ZM16.6667 9.33334H14.6667V17.3333L21.6667 21.5333L22.6667 19.8667L16.6667 16.3333V9.33334Z" fill="#40C4AA"/>
</svg>
