<svg width="32" height="32" viewBox="0 0 32 32" fill="none" xmlns="http://www.w3.org/2000/svg">
  <path d="M28 13.3333H24V9.33333C24 8.6 23.4 8 22.6667 8H18.6667V4C18.6667 3.26667 18.0667 2.66667 17.3333 2.66667H4C3.26667 2.66667 2.66667 3.26667 2.66667 4V22.6667C2.66667 23.4 3.26667 24 4 24H8V28C8 28.7333 8.6 29.3333 9.33333 29.3333H28C28.7333 29.3333 29.3333 28.7333 29.3333 28V14.6667C29.3333 13.9333 28.7333 13.3333 28 13.3333ZM4 22.6667V4H17.3333V22.6667H4ZM8 9.33333H13.3333V12H8V9.33333ZM8 14.6667H13.3333V17.3333H8V14.6667Z" fill="#40C4AA"/>
</svg>
