<svg width="32" height="32" viewBox="0 0 32 32" fill="none" xmlns="http://www.w3.org/2000/svg">
  <path d="M26.6667 5.33333H5.33333C3.86667 5.33333 2.68 6.53333 2.68 8L2.66667 24C2.66667 25.4667 3.86667 26.6667 5.33333 26.6667H26.6667C28.1333 26.6667 29.3333 25.4667 29.3333 24V8C29.3333 6.53333 28.1333 5.33333 26.6667 5.33333ZM12 21.3333H6.66667V18.6667H12V21.3333ZM12 16H6.66667V13.3333H12V16ZM12 10.6667H6.66667V8H12V10.6667ZM21.3333 21.3333H14.6667V18.6667H21.3333V21.3333ZM25.3333 16H14.6667V13.3333H25.3333V16ZM25.3333 10.6667H14.6667V8H25.3333V10.6667Z" fill="#40C4AA"/>
</svg>
